/* XPM */
static char *_84980a8dc794099d76b92091d8318d6krf1E6kksfCx4Noy[] = {
/* columns rows colors chars-per-pixel */
"64 64 2 1 ",
"  c None",
". c black",
/* pixels */
"                                                                ",
"                                                                ",
"                                                                ",
"                                                                ",
"            ........................................            ",
"           ..........................................           ",
"          ............................................          ",
"         ....                                      ....         ",
"         ...                                        ...         ",
"         ...   ..................................   ...         ",
"         ...  ....................................  ...         ",
"         ...  ....................................  ...         ",
"         ...  ...                              ...  ...         ",
"         ...  ...                              ...  ...         ",
"         ...  ...                              ...  ...         ",
"         ...  ...                              ...  ...         ",
"         ...  ...                              ...  ...         ",
"         ...  ....................................  ...         ",
"         ...  ....................................  ...         ",
"         ...                                        ...         ",
"         ...                                        ...         ",
"         ...   .......  .......  .......  .......   ...         ",
"         ...  ........ ........  ........ ........  ...         ",
"         ...  ........ ........  ........ ........  ...         ",
"         ...  ...   .. ...   ..  ..   ... ..   ...  ...         ",
"         ...  ...   .. ...   ..  ..   ... ..   ...  ...         ",
"         ...  ........ ........  ........ ........  ...         ",
"         ...  ........ ........  ........ ........  ...         ",
"         ...   .......  .......  .......  .......   ...         ",
"         ...                                        ...         ",
"         ...  ........  .......  .......  ........  ...         ",
"         ...  ........ ........  ........ ........  ...         ",
"         ...  ...  ... ...  ...  ...  ... ...  ...  ...         ",
"         ...  ...   .. ...   ..  ..   ... ..   ...  ...         ",
"         ...  ...  ... ...   ..  ..   ... ...  ...  ...         ",
"         ...  ........ ........  ........ ........  ...         ",
"         ...  ........ ........  ........ ........  ...         ",
"         ...                                        ...         ",
"         ...   ......    .....    .....             ...         ",
"         ...  ........ ........  ........ ........  ...         ",
"         ...  ........ ........  ........ ........  ...         ",
"         ...  ...  ... ...   ..  ..   ... ...  ...  ...         ",
"         ...  ...   .. ...   ..  ..   ... ..   ...  ...         ",
"         ...  ........ ........  ........ ..   ...  ...         ",
"         ...  ........ ........  ........ ..   ...  ...         ",
"         ...  ........  .......  .......  ..   ...  ...         ",
"         ...                              ..   ...  ...         ",
"         ...  ........  .......  .......  ..   ...  ...         ",
"         ...  ........ ........  ........ ..   ...  ...         ",
"         ...  ........ ........  ........ ..   ...  ...         ",
"         ...  ...   .. ...   ..  ..   ... ..   ...  ...         ",
"         ...  ...   .. ...   ..  ..   ... ...  ...  ...         ",
"         ...  ........ ........  ........ ........  ...         ",
"         ...  ........ ........  ........ ........  ...         ",
"         ...   ......   .......  .......            ...         ",
"         ...                                        ...         ",
"         ....                                      ....         ",
"          ............................................          ",
"           ..........................................           ",
"            ........................................            ",
"                                                                ",
"                                                                ",
"                                                                ",
"                                                                "
};
